<?xml version="1.0" standalone="no"?><!DOCTYPE svg PUBLIC "-//W3C//DTD SVG 1.1//EN" "http://www.w3.org/Graphics/SVG/1.1/DTD/svg11.dtd"><svg t="1638855638235" class="icon" viewBox="0 0 1024 1024" version="1.1" xmlns="http://www.w3.org/2000/svg" p-id="9813" xmlns:xlink="http://www.w3.org/1999/xlink" width="32" height="32"><defs><style type="text/css"></style></defs><path d="M773.5 612.6c-13.3 13.3-34.9 13.3-48.3 0-13.3-13.3-13.3-34.9 0-48.3l100.6-100.6c73.3-73.3 73.3-192.2 0-265.5s-192.2-73.3-265.5 0L459.7 298.8c-13.3 13.3-34.9 13.3-48.3 0-13.3-13.3-13.3-34.9 0-48.3L512 150c100-100 262.1-100 362 0s100 262.1 0 362L773.5 612.6zM612.6 773.5L512 874c-100 100-262.1 100-362 0s-100-262 0-362l100.6-100.6c13.3-13.3 34.9-13.3 48.3 0 13.3 13.3 13.3 34.9 0 48.3L198.2 560.3c-73.3 73.3-73.3 192.2 0 265.5s192.2 73.3 265.5 0l100.6-100.6c13.3-13.3 34.9-13.3 48.3 0 13.3 13.3 13.3 34.9 0 48.3zM290.8 250.5l482.7 482.7c11.1 11.1 11.1 29.1 0 40.2-11.1 11.1-29.1 11.1-40.2 0L250.5 290.8c-11.1-11.1-11.1-29.1 0-40.2s29.1-11.2 40.3-0.1z" fill="#d81e06" p-id="9814"></path></svg>