<?xml version="1.0" standalone="no"?><!DOCTYPE svg PUBLIC "-//W3C//DTD SVG 1.1//EN" "http://www.w3.org/Graphics/SVG/1.1/DTD/svg11.dtd"><svg t="1637898283616" class="icon" viewBox="0 0 1024 1024" version="1.1" xmlns="http://www.w3.org/2000/svg" p-id="2132" xmlns:xlink="http://www.w3.org/1999/xlink" width="81" height="81"><defs><style type="text/css"></style></defs><path d="M414.72 391.68h194.56v126.72H414.72z" fill="#1AD4FF" p-id="2133"></path><path d="M893.44 769.2544H130.56c-72.1024 0-130.56-58.4576-130.56-130.56s58.4576-130.56 130.56-130.56h762.88c72.1024 0 130.56 58.4576 130.56 130.56 0 72.1152-58.4576 130.56-130.56 130.56z" fill="#1AD4FF" p-id="2134"></path><path d="M846.08 1024H177.92c-47.36 0-85.76-38.4-85.76-85.76s38.4-85.76 85.76-85.76h668.16c47.36 0 85.76 38.4 85.76 85.76s-38.4 85.76-85.76 85.76z" fill="#66E9FF" p-id="2135"></path><path d="M512 0c-123.712 0-224 100.288-224 224s100.288 224 224 224 224-100.288 224-224S635.712 0 512 0z m0 352c-70.6944 0-128-57.3056-128-128S441.3056 96 512 96s128 57.3056 128 128-57.3056 128-128 128z" fill="#1AD4FF" p-id="2136"></path></svg>