<?xml version="1.0" standalone="no"?><!DOCTYPE svg PUBLIC "-//W3C//DTD SVG 1.1//EN" "http://www.w3.org/Graphics/SVG/1.1/DTD/svg11.dtd"><svg t="1637898188496" class="icon" viewBox="0 0 1024 1024" version="1.1" xmlns="http://www.w3.org/2000/svg" p-id="1521" xmlns:xlink="http://www.w3.org/1999/xlink" width="81" height="81"><defs><style type="text/css"></style></defs><path d="M770.56 291.84h189.44L668.16 0v189.44c0 56.5504 45.8496 102.4 102.4 102.4z" fill="#66E9FF" p-id="1522"></path><path d="M763.0208 309.12c-65.1136 0-117.9008-52.1856-117.9008-116.544V0H166.4C109.8496 0 64 45.8496 64 102.4v819.2c0 56.5504 45.8496 102.4 102.4 102.4h691.2c56.5504 0 102.4-45.8496 102.4-102.4V309.12H763.0208z m42.2912 142.4128L487.3856 760.1024a41.4976 41.4976 0 0 1-28.9536 11.7376c-8.64 0-17.3056-2.688-24.6912-8.1408L218.688 604.7488c-18.4576-13.6448-22.3616-39.6672-8.7168-58.1248 13.6448-18.4576 39.6672-22.3616 58.1248-8.7168l186.7136 138.0096 292.6208-284.0192c16.4736-15.9872 42.7776-15.5904 58.7648 0.8832 15.9744 16.4608 15.5776 42.7776-0.8832 58.752z" fill="#1AD4FF" p-id="1523"></path></svg>