<?xml version="1.0" standalone="no"?><!DOCTYPE svg PUBLIC "-//W3C//DTD SVG 1.1//EN" "http://www.w3.org/Graphics/SVG/1.1/DTD/svg11.dtd"><svg t="1637898228488" class="icon" viewBox="0 0 1024 1024" version="1.1" xmlns="http://www.w3.org/2000/svg" p-id="1979" xmlns:xlink="http://www.w3.org/1999/xlink" width="81" height="81"><defs><style type="text/css"></style></defs><path d="M486.5792 550.1312L80.8064 325.696c-35.2768-19.5072-35.2128-70.2464 0.1152-89.664L486.6944 12.928c15.36-8.448 33.9712-8.448 49.3312 0l405.7728 223.104c35.328 19.4176 35.392 70.1568 0.1152 89.664L536.1408 550.1312a51.15264 51.15264 0 0 1-49.5616 0z" fill="#1AD4FF" p-id="1980"></path><path d="M506.24 776.3456c-9.7024 0-19.4048-2.688-27.9296-8.0512l-437.76-275.2256c-24.5376-15.424-31.9232-47.8208-16.4992-72.3584s47.8208-31.9232 72.3584-16.4992l410.3552 257.9968 421.5808-255.0528c24.7936-15.0016 57.0624-7.0656 72.064 17.7408 15.0016 24.7936 7.0656 57.0624-17.7408 72.064l-449.28 271.808a52.33024 52.33024 0 0 1-27.1488 7.5776z" fill="#66E9FF" p-id="1981"></path><path d="M506.24 1019.52c-9.7024 0-19.4048-2.688-27.9296-8.0512l-437.76-275.2256c-24.5376-15.424-31.9232-47.8208-16.4992-72.3584s47.8208-31.9232 72.3584-16.4992l410.3552 257.9968 421.5808-255.0528c24.7936-15.0016 57.0624-7.0656 72.064 17.7408 15.0016 24.7936 7.0656 57.0624-17.7408 72.064l-449.28 271.808a52.33024 52.33024 0 0 1-27.1488 7.5776z" fill="#66E9FF" p-id="1982"></path></svg>