<?xml version="1.0" standalone="no"?><!DOCTYPE svg PUBLIC "-//W3C//DTD SVG 1.1//EN" "http://www.w3.org/Graphics/SVG/1.1/DTD/svg11.dtd"><svg t="1637898198760" class="icon" viewBox="0 0 1024 1024" version="1.1" xmlns="http://www.w3.org/2000/svg" p-id="1827" xmlns:xlink="http://www.w3.org/1999/xlink" width="81" height="81"><defs><style type="text/css"></style></defs><path d="M621.7088 164.5696H402.2912c-45.44 0-82.2912-36.8384-82.2912-82.2912C320 36.8384 356.8384 0 402.2912 0h219.4304C667.1616 0 704 36.8384 704 82.2912c0 45.44-36.8384 82.2784-82.2912 82.2784z" fill="#66E9FF" p-id="1828"></path><path d="M857.6 64h-125.7856a95.63264 95.63264 0 0 1 5.4784 32c0 53.0176-42.9824 96-96 96h-256c-53.0176 0-96-42.9824-96-96 0-11.2256 1.9456-21.9904 5.4784-32H166.4c-56.5504 0-102.4 45.8496-102.4 102.4v755.2c0 56.5504 45.8496 102.4 102.4 102.4h691.2c56.5504 0 102.4-45.8496 102.4-102.4V166.4c0-56.5504-45.8496-102.4-102.4-102.4z m-83.9168 622.08c0 28.2752-22.9248 51.2-51.2 51.2H301.5168c-28.2752 0-51.2-22.9248-51.2-51.2s22.9248-51.2 51.2-51.2h420.9792c28.2752 0 51.1872 22.9248 51.1872 51.2z m0-230.4c0 28.2752-22.9248 51.2-51.2 51.2H301.5168c-28.2752 0-51.2-22.9248-51.2-51.2s22.9248-51.2 51.2-51.2h420.9792c28.2752 0 51.1872 22.9248 51.1872 51.2z" fill="#1AD4FF" p-id="1829"></path></svg>